<svg version="1.1" xmlns="http://www.w3.org/2000/svg" viewBox="0 0 1255.4263573291428 796.3798351266931" width="2510.8527146582855" height="1592.7596702533863" filter="invert(93%) hue-rotate(180deg)">
  <!-- svg-source:excalidraw -->
  
  <defs>
    <style class="style-fonts">
      @font-face {
        font-family: "Virgil";
        src: url("https://excalidraw.com/Virgil.woff2");
      }
      @font-face {
        font-family: "Cascadia";
        src: url("https://excalidraw.com/Cascadia.woff2");
      }
      @font-face {
        font-family: "Assistant";
        src: url("https://excalidraw.com/Assistant-Regular.woff2");
      }
    </style>
    
  </defs>
  <g stroke-linecap="round" transform="translate(1117.126616792856 351.512213682949) rotate(0 64.14987026814333 30)"><path d="M15 0 C56.86 0.65, 93.96 1.19, 113.3 0 C120.06 -1.94, 125.56 1.96, 128.3 15 C127.18 18.04, 124.47 26.11, 128.3 45 C125.33 54.36, 125.25 58.91, 113.3 60 C95.56 58.73, 74.26 59.42, 15 60 C6.56 59.71, 1.92 58.11, 0 45 C1.06 35.08, 2.91 30.79, 0 15 C-1.02 7.92, 7.27 1.26, 15 0" stroke="none" stroke-width="0" fill="#d0bfff"></path><path d="M15 0 C44.66 0.79, 71.94 1.45, 113.3 0 M15 0 C47.27 1.4, 79.38 0.58, 113.3 0 M113.3 0 C122.21 1.51, 128.78 3.09, 128.3 15 M113.3 0 C124.78 0.24, 128.9 4.59, 128.3 15 M128.3 15 C128.34 25.15, 130.12 34.11, 128.3 45 M128.3 15 C127.81 25.87, 127.87 35.75, 128.3 45 M128.3 45 C128.35 53.94, 121.93 60.09, 113.3 60 M128.3 45 C129.24 56.37, 121.81 62.2, 113.3 60 M113.3 60 C91.3 59.21, 67.4 59.45, 15 60 M113.3 60 C80.19 60, 46.88 59.24, 15 60 M15 60 C4.68 59.46, 1.94 54.15, 0 45 M15 60 C6.98 61.43, -1.9 54.99, 0 45 M0 45 C1.66 37.97, 0.54 31.72, 0 15 M0 45 C-0.43 37.8, -0.67 31.26, 0 15 M0 15 C-1.9 3.45, 5.97 0.9, 15 0 M0 15 C0.3 4.81, 3.68 0.84, 15 0" stroke="#1e1e1e" stroke-width="2" fill="none"></path></g><g stroke-linecap="round" transform="translate(1104.534580901658 363.81658668525336) rotate(0 64.14987026814333 30)"><path d="M15 0 C56.86 -2.54, 93.9 1.26, 113.3 0 C121.13 0.38, 129.67 5.71, 128.3 15 C126.53 26.78, 127.48 36.25, 128.3 45 C128.37 53.8, 123.26 58.2, 113.3 60 C82.28 61.81, 58.62 62.05, 15 60 C2.05 62.95, 0.5 53.13, 0 45 C-1.99 37.73, 3.91 30.16, 0 15 C2.34 6.1, 2.13 1.31, 15 0" stroke="none" stroke-width="0" fill="#d0bfff"></path><path d="M15 0 C50.85 2.53, 91.23 1.41, 113.3 0 M15 0 C41.12 -0.47, 67.58 -0.62, 113.3 0 M113.3 0 C123.75 1.32, 128.68 4.09, 128.3 15 M113.3 0 C124.63 0.46, 126.89 5.43, 128.3 15 M128.3 15 C128.4 26.65, 130.12 36.56, 128.3 45 M128.3 15 C128.58 27.41, 128.57 37.36, 128.3 45 M128.3 45 C128.05 53.27, 123.6 61.04, 113.3 60 M128.3 45 C130.33 54.08, 122.25 61.88, 113.3 60 M113.3 60 C76.23 58.42, 39.33 61.75, 15 60 M113.3 60 C75.69 60.67, 38.59 60.23, 15 60 M15 60 C4.02 61, -1.21 56.77, 0 45 M15 60 C4.18 61.08, -1.07 54.42, 0 45 M0 45 C1.4 37.26, 1.93 28.92, 0 15 M0 45 C0.32 36.89, -1 27.46, 0 15 M0 15 C1.44 5.76, 4.87 0.65, 15 0 M0 15 C0.14 5.67, 3.92 2.23, 15 0" stroke="#1e1e1e" stroke-width="2" fill="none"></path></g><g stroke-linecap="round" transform="translate(117.0474521965375 162.355168923885) rotate(0 50.348450173342826 21.642462060572996)"><path d="M10.82 0 C32.37 1.79, 50.2 -2.45, 89.88 0 C97.36 -3.43, 98.01 1.33, 100.7 10.82 C104.06 19.58, 98.32 23.73, 100.7 32.46 C102.09 38.95, 96.02 41.27, 89.88 43.28 C67.2 46.53, 35.3 46.81, 10.82 43.28 C2.93 43.41, 2.36 41.55, 0 32.46 C-0.15 22.83, -1.19 16.13, 0 10.82 C0.37 1.9, 0.5 1.71, 10.82 0" stroke="none" stroke-width="0" fill="#e9ecef"></path><path d="M10.82 0 C28.04 0.19, 47.23 1.74, 89.88 0 M10.82 0 C31.24 -0.1, 51.03 0.75, 89.88 0 M89.88 0 C97.32 -1.27, 99.91 2.5, 100.7 10.82 M89.88 0 C98.95 -1.89, 98.42 5.03, 100.7 10.82 M100.7 10.82 C99.69 16.56, 100.67 20.5, 100.7 32.46 M100.7 10.82 C100.04 16.81, 100.99 21.15, 100.7 32.46 M100.7 32.46 C101.12 38.39, 95.4 43.77, 89.88 43.28 M100.7 32.46 C99 41.22, 96.22 45.12, 89.88 43.28 M89.88 43.28 C68.85 42.56, 50.71 40.63, 10.82 43.28 M89.88 43.28 C73.37 42.47, 55.64 43.3, 10.82 43.28 M10.82 43.28 C2.73 43.22, 0.35 39.18, 0 32.46 M10.82 43.28 C3.52 42.6, -0.09 40.66, 0 32.46 M0 32.46 C1.09 25.3, -1.43 13.73, 0 10.82 M0 32.46 C0.84 24.26, -0.09 15.96, 0 10.82 M0 10.82 C1.97 2.72, 2.02 0.72, 10.82 0 M0 10.82 C-0.25 2.42, 1.74 -1.57, 10.82 0" stroke="#1e1e1e" stroke-width="2" fill="none"></path></g><g stroke-linecap="round" transform="translate(105.57851431268227 173.92848849496465) rotate(0 50.348450173342826 21.642462060572996)"><path d="M10.82 0 C30.62 -0.52, 45.21 1.1, 89.88 0 C95.4 3.59, 102.61 1.29, 100.7 10.82 C98.57 16.31, 99.94 25.4, 100.7 32.46 C98.05 42.67, 95.99 44.87, 89.88 43.28 C65.01 41.62, 44.53 45.17, 10.82 43.28 C5.53 40.53, 1.07 42.46, 0 32.46 C-2.9 26.71, 1.55 15.62, 0 10.82 C-2.06 5.52, 5.15 -2.54, 10.82 0" stroke="none" stroke-width="0" fill="#e9ecef"></path><path d="M10.82 0 C29.72 0.74, 49.98 2.18, 89.88 0 M10.82 0 C30.34 0.1, 51.25 -1.48, 89.88 0 M89.88 0 C98.57 0.31, 101.44 3.08, 100.7 10.82 M89.88 0 C99.13 -1.45, 99.62 3.14, 100.7 10.82 M100.7 10.82 C101.22 16.64, 99.31 24.96, 100.7 32.46 M100.7 10.82 C101.16 18.98, 101.04 25.21, 100.7 32.46 M100.7 32.46 C99.24 37.72, 95.84 44.16, 89.88 43.28 M100.7 32.46 C100.13 38.29, 95.08 42.32, 89.88 43.28 M89.88 43.28 C62.43 45, 37.56 44.3, 10.82 43.28 M89.88 43.28 C63.01 43.31, 37.76 41.87, 10.82 43.28 M10.82 43.28 C4.93 45.25, 1.94 38.31, 0 32.46 M10.82 43.28 C5.3 42.61, -1.65 39.93, 0 32.46 M0 32.46 C0.71 25.38, 1.94 18.5, 0 10.82 M0 32.46 C-0.9 26.01, -0.06 17.63, 0 10.82 M0 10.82 C1.05 3.15, 5.44 0.46, 10.82 0 M0 10.82 C-1.3 3.74, 4.01 -0.36, 10.82 0" stroke="#1e1e1e" stroke-width="2" fill="none"></path></g><g stroke-linecap="round" transform="translate(378.6049230014687 371.6899889293095) rotate(0 64.14987026814333 30)"><path d="M15 0 C36.49 0.34, 56.04 -4.18, 113.3 0 C123.24 -2.82, 127 4.67, 128.3 15 C128.3 27.71, 130.13 38.16, 128.3 45 C125.92 53.3, 122.81 57.68, 113.3 60 C84.36 59.75, 47.57 57.88, 15 60 C1.52 62.65, -0.33 54.5, 0 45 C-1.06 37.22, 2.63 32.41, 0 15 C-2.38 7.57, 5.57 -1.3, 15 0" stroke="none" stroke-width="0" fill="#ffec99"></path><path d="M15 0 C40.78 -0.45, 70.81 -0.59, 113.3 0 M15 0 C46.64 -0.44, 78.03 1.08, 113.3 0 M113.3 0 C121.82 -1.16, 127.64 5.07, 128.3 15 M113.3 0 C124.23 1.82, 126.71 4.45, 128.3 15 M128.3 15 C129.45 23.65, 128.02 27.69, 128.3 45 M128.3 15 C129.18 24.77, 127.69 33.04, 128.3 45 M128.3 45 C129.82 53.26, 123.11 58.12, 113.3 60 M128.3 45 C126.92 56.17, 125.37 59.1, 113.3 60 M113.3 60 C93.3 58.93, 71.51 59.53, 15 60 M113.3 60 C93.5 59.22, 73.06 59.42, 15 60 M15 60 C3.08 59.91, 0.02 55.78, 0 45 M15 60 C5 57.78, -0.4 55.51, 0 45 M0 45 C-1.78 34.36, 0.96 26.34, 0 15 M0 45 C-0.31 37.41, -0.88 29.76, 0 15 M0 15 C-1.34 6.4, 3.44 1.62, 15 0 M0 15 C-1.77 4.65, 4.26 -1.13, 15 0" stroke="#1e1e1e" stroke-width="2" fill="none"></path></g><g stroke-linecap="round" transform="translate(367.6361473689003 383.6199459317414) rotate(0 64.14987026814333 30)"><path d="M15 0 C51.86 -2.45, 90.82 -3.45, 113.3 0 C122.02 0.47, 128.13 3.68, 128.3 15 C125.03 20.62, 129.35 34.21, 128.3 45 C130.17 58.28, 126.49 58.62, 113.3 60 C95.33 56.55, 73.8 59.28, 15 60 C7.71 60.49, 2.31 53.78, 0 45 C-2.56 33.96, -2.04 25.7, 0 15 C-3.05 7.11, 4.41 -2.41, 15 0" stroke="none" stroke-width="0" fill="#ffec99"></path><path d="M15 0 C35.66 0.02, 52.67 1.28, 113.3 0 M15 0 C37.61 -0.84, 59.98 -0.42, 113.3 0 M113.3 0 C124.97 -0.37, 129.81 6.23, 128.3 15 M113.3 0 C122.79 -0.62, 128.51 6.24, 128.3 15 M128.3 15 C126.5 27.34, 128.61 36.7, 128.3 45 M128.3 15 C128.17 26.33, 127.86 37.36, 128.3 45 M128.3 45 C128.15 56.2, 122.57 59.03, 113.3 60 M128.3 45 C128.95 54.2, 122.26 59.56, 113.3 60 M113.3 60 C79.38 60.99, 48.15 58.14, 15 60 M113.3 60 C86.52 61.47, 57.73 60.83, 15 60 M15 60 C4.13 58.28, 0.65 54.36, 0 45 M15 60 C7.25 58.93, 1.95 53.28, 0 45 M0 45 C-0.08 35.73, -0.08 27.41, 0 15 M0 45 C-0.32 33.25, 0.7 20.75, 0 15 M0 15 C2 4.02, 4.96 0.07, 15 0 M0 15 C-0.79 4.85, 5.32 1.9, 15 0" stroke="#1e1e1e" stroke-width="2" fill="none"></path></g><g stroke-linecap="round" transform="translate(104.80911536099802 509.0884029491625) rotate(0 62.666015625 36.09765625)"><path d="M18.05 0 C39.05 -4.33, 65.83 -3.93, 107.28 0 C118.81 1.07, 125.88 2.85, 125.33 18.05 C123.76 28.45, 124.43 36.14, 125.33 54.15 C127.11 67.09, 121.69 74.9, 107.28 72.2 C75.47 74.36, 44.9 69.36, 18.05 72.2 C5.73 70.46, 2.7 63.06, 0 54.15 C-1.27 39.12, -0.07 30.54, 0 18.05 C1.07 5.52, 5.71 -1.37, 18.05 0" stroke="none" stroke-width="0" fill="#b2f2bb"></path><path d="M18.05 0 C41.36 1.21, 64.74 -1.11, 107.28 0 M18.05 0 C40.06 0.2, 62.76 1.34, 107.28 0 M107.28 0 C121.27 1.65, 123.57 6.04, 125.33 18.05 M107.28 0 C121.31 -1.75, 125.85 6.59, 125.33 18.05 M125.33 18.05 C126.9 30.91, 126.37 40.95, 125.33 54.15 M125.33 18.05 C124.54 27.96, 125.82 35.75, 125.33 54.15 M125.33 54.15 C126.31 64.28, 119.97 73.64, 107.28 72.2 M125.33 54.15 C124.88 65.93, 120.37 73.65, 107.28 72.2 M107.28 72.2 C85.81 73, 65.49 70.33, 18.05 72.2 M107.28 72.2 C74.53 72.15, 41.79 71.27, 18.05 72.2 M18.05 72.2 C6.21 70.6, 0.75 66.79, 0 54.15 M18.05 72.2 C6.3 71.83, 1.34 67.5, 0 54.15 M0 54.15 C0.32 44.5, 1.33 33.87, 0 18.05 M0 54.15 C0.34 41.51, 0.28 28.56, 0 18.05 M0 18.05 C-1.74 6.51, 6.14 0.02, 18.05 0 M0 18.05 C1.89 4.67, 4.89 -1.72, 18.05 0" stroke="#1e1e1e" stroke-width="2" fill="none"></path></g><g stroke-linecap="round" transform="translate(95.2254367702435 520.8677313142506) rotate(0 62.666015625 36.09765625)"><path d="M18.05 0 C35.27 -3.86, 56.12 -2.68, 107.28 0 C119.03 2.07, 126.91 9.27, 125.33 18.05 C121.84 28.67, 125.66 33.71, 125.33 54.15 C127.68 64.84, 122.09 72.41, 107.28 72.2 C87.71 71.22, 63.55 74.87, 18.05 72.2 C4.84 68.74, 1.65 67.75, 0 54.15 C3.04 45.39, 4.1 33.73, 0 18.05 C-3.15 3.49, 6.45 1.21, 18.05 0" stroke="none" stroke-width="0" fill="#b2f2bb"></path><path d="M18.05 0 C52.16 1.99, 89.08 1.79, 107.28 0 M18.05 0 C41.67 -0.92, 64.01 -1.45, 107.28 0 M107.28 0 C119.22 0.09, 125.24 7.63, 125.33 18.05 M107.28 0 C119.09 -1.18, 126.16 7.87, 125.33 18.05 M125.33 18.05 C123.96 30.21, 123.69 46.04, 125.33 54.15 M125.33 18.05 C124.2 30.67, 124.25 41.84, 125.33 54.15 M125.33 54.15 C126.39 66.09, 120.18 70.51, 107.28 72.2 M125.33 54.15 C124.55 65.16, 121.49 71.26, 107.28 72.2 M107.28 72.2 C76.03 72.9, 48.13 73.38, 18.05 72.2 M107.28 72.2 C86.21 71.15, 65.05 72.96, 18.05 72.2 M18.05 72.2 C4.18 73.96, 1.81 64.66, 0 54.15 M18.05 72.2 C6.29 73.79, -0.5 65.59, 0 54.15 M0 54.15 C1.64 44.15, 1.16 33.74, 0 18.05 M0 54.15 C1.16 41.44, 0.82 29.89, 0 18.05 M0 18.05 C-1.63 4.45, 6.14 0.24, 18.05 0 M0 18.05 C-0.48 4.64, 8.12 2.24, 18.05 0" stroke="#1e1e1e" stroke-width="2" fill="none"></path></g><g stroke-linecap="round" transform="translate(58.445034413889516 701.3798351266931) rotate(0 94.427734375 42.5)"><path d="M21.25 0 C76.2 -3.06, 127.26 -2.51, 167.61 0 M21.25 0 C59.69 1.73, 98.85 1.02, 167.61 0 M167.61 0 C183.62 -1.04, 189.77 8.96, 188.86 21.25 M167.61 0 C183.61 1.66, 187.06 5.33, 188.86 21.25 M188.86 21.25 C189.27 32.14, 186.82 39.56, 188.86 63.75 M188.86 21.25 C188.39 35.78, 188.45 48.61, 188.86 63.75 M188.86 63.75 C190.18 77.91, 183.09 85.56, 167.61 85 M188.86 63.75 C189.69 76.62, 182.65 87.16, 167.61 85 M167.61 85 C136.72 83.77, 105.99 85.65, 21.25 85 M167.61 85 C133.61 83.83, 99.19 83.53, 21.25 85 M21.25 85 C5.61 83.7, -1.75 78.04, 0 63.75 M21.25 85 C7.1 86.36, 2.28 79.79, 0 63.75 M0 63.75 C-1.52 51.93, 0.08 42.1, 0 21.25 M0 63.75 C1.02 48.37, -0.6 31.97, 0 21.25 M0 21.25 C-1.88 8.3, 5.49 1.2, 21.25 0 M0 21.25 C-0.47 6.01, 8.37 0.08, 21.25 0" stroke="#1e1e1e" stroke-width="2" fill="none"></path></g><g transform="translate(70.57283440168248 718.8798351266931) rotate(0 82.29993438720703 25)"><text x="82.29993438720703" y="0" font-family="Virgil, Segoe UI Emoji" font-size="20px" fill="#1e1e1e" text-anchor="middle" style="white-space: pre;" direction="ltr" dominant-baseline="text-before-edge">Text Generation</text><text x="82.29993438720703" y="25" font-family="Virgil, Segoe UI Emoji" font-size="20px" fill="#1e1e1e" text-anchor="middle" style="white-space: pre;" direction="ltr" dominant-baseline="text-before-edge">Task</text></g><g stroke-linecap="round" transform="translate(83.85469022982397 531.5860435874914) rotate(0 62.666015625 36.09765625)"><path d="M18.05 0 C40.04 -0.98, 57.57 -2.88, 107.28 0 C122.77 -2.57, 124.58 2.5, 125.33 18.05 C123.16 29.72, 125.7 34.69, 125.33 54.15 C127.72 64.37, 118.46 71.24, 107.28 72.2 C82.78 70.01, 56.08 69.31, 18.05 72.2 C7.85 70.56, 0.08 68.74, 0 54.15 C-2.02 43.58, 1.85 26.9, 0 18.05 C-1.27 4.95, 3.88 -3.23, 18.05 0" stroke="none" stroke-width="0" fill="#b2f2bb"></path><path d="M18.05 0 C36.55 -0.72, 54.56 -0.33, 107.28 0 M18.05 0 C48.9 -0.2, 78.37 1.26, 107.28 0 M107.28 0 C120.92 1.44, 123.77 4.49, 125.33 18.05 M107.28 0 C117.8 -0.67, 124.34 6.64, 125.33 18.05 M125.33 18.05 C125.46 32.42, 123.5 41.39, 125.33 54.15 M125.33 18.05 C125.71 31.68, 125.7 45.61, 125.33 54.15 M125.33 54.15 C126.06 65.05, 120.08 74.08, 107.28 72.2 M125.33 54.15 C123.35 64.13, 120 72.64, 107.28 72.2 M107.28 72.2 C86.63 74.17, 67.47 72.95, 18.05 72.2 M107.28 72.2 C82.82 70.97, 58.95 71.68, 18.05 72.2 M18.05 72.2 C6.03 73.37, 1.98 67.81, 0 54.15 M18.05 72.2 C4.77 73.34, -1.15 64.68, 0 54.15 M0 54.15 C1.6 43.92, -0.92 38.68, 0 18.05 M0 54.15 C-0.58 40.73, -0.43 26.69, 0 18.05 M0 18.05 C-0.41 5.08, 7.14 0.07, 18.05 0 M0 18.05 C2.27 7.5, 5.43 2.04, 18.05 0" stroke="#1e1e1e" stroke-width="2" fill="none"></path></g><g transform="translate(113.16074339144507 555.1836998374914) rotate(0 33.359962463378906 12.5)"><text x="33.359962463378906" y="0" font-family="Virgil, Segoe UI Emoji" font-size="20px" fill="#1e1e1e" text-anchor="middle" style="white-space: pre;" direction="ltr" dominant-baseline="text-before-edge">Prompt</text></g><g stroke-linecap="round" transform="translate(85.21903218248144 387.4794099692855) rotate(0 62.666015625 36.09765625)"><path d="M18.05 0 C37.87 -2.37, 57.85 3.96, 107.28 0 C117.9 -2.68, 127.51 5.88, 125.33 18.05 C124.91 25.58, 124.72 38.14, 125.33 54.15 C123.24 65.87, 118.07 69.38, 107.28 72.2 C85.43 74.02, 65.51 68.72, 18.05 72.2 C8.53 69.68, 2.36 67.53, 0 54.15 C-1.9 41.47, -1.68 35.8, 0 18.05 C2.06 7.58, 8.84 3.16, 18.05 0" stroke="none" stroke-width="0" fill="#ffd8a8"></path><path d="M18.05 0 C40.34 1.95, 63.01 1.02, 107.28 0 M18.05 0 C52.43 -1.41, 87.71 -0.93, 107.28 0 M107.28 0 C118.45 0.54, 126.27 4.1, 125.33 18.05 M107.28 0 C117.49 0.54, 127.45 4.31, 125.33 18.05 M125.33 18.05 C125.32 27.1, 125.6 34.82, 125.33 54.15 M125.33 18.05 C125.85 30.83, 124.6 40.84, 125.33 54.15 M125.33 54.15 C125.92 66.57, 117.65 73.14, 107.28 72.2 M125.33 54.15 C125.58 64.67, 121.47 70.89, 107.28 72.2 M107.28 72.2 C76.28 70.93, 46.54 70.65, 18.05 72.2 M107.28 72.2 C80.96 73.54, 52.11 73.22, 18.05 72.2 M18.05 72.2 C5.01 70.89, -1.37 66.47, 0 54.15 M18.05 72.2 C5.15 74.1, -2.15 65.18, 0 54.15 M0 54.15 C1.16 39.19, 0.9 26.41, 0 18.05 M0 54.15 C0.63 41.18, 1.06 28.79, 0 18.05 M0 18.05 C-0.51 7.79, 4.18 -1.23, 18.05 0 M0 18.05 C0.54 8.19, 5.63 1.5, 18.05 0" stroke="#1e1e1e" stroke-width="2" fill="none"></path></g><g transform="translate(95.36508931138769 398.5770662192855) rotate(0 52.51995849609375 25)"><text x="52.51995849609375" y="0" font-family="Virgil, Segoe UI Emoji" font-size="20px" fill="#1e1e1e" text-anchor="middle" style="white-space: pre;" direction="ltr" dominant-baseline="text-before-edge">Generation</text><text x="52.51995849609375" y="25" font-family="Virgil, Segoe UI Emoji" font-size="20px" fill="#1e1e1e" text-anchor="middle" style="white-space: pre;" direction="ltr" dominant-baseline="text-before-edge">LLM</text></g><g stroke-linecap="round" transform="translate(356.897059699897 394.02203342721384) rotate(0 64.14987026814333 30)"><path d="M15 0 C54.36 1.18, 87.01 3.71, 113.3 0 C121.49 -0.85, 127.34 3.96, 128.3 15 C126.74 23.78, 126.04 40.02, 128.3 45 C126.66 55.08, 125.86 62.1, 113.3 60 C93.67 60.12, 67.94 57.49, 15 60 C3.93 57.87, -3.23 53.09, 0 45 C2.51 38.71, 2.96 29.13, 0 15 C3.24 5.78, 2.31 1.84, 15 0" stroke="none" stroke-width="0" fill="#ffec99"></path><path d="M15 0 C50.44 -2.35, 81.47 -2.11, 113.3 0 M15 0 C42.12 -1.23, 67.5 -0.03, 113.3 0 M113.3 0 C125.14 -1.49, 126.58 6.56, 128.3 15 M113.3 0 C121.48 -0.34, 129.82 4.99, 128.3 15 M128.3 15 C127.26 26.73, 130.27 35.22, 128.3 45 M128.3 15 C127.56 21.8, 128.5 27, 128.3 45 M128.3 45 C130.18 53.86, 123.96 59.32, 113.3 60 M128.3 45 C128.83 53.52, 121.6 58.51, 113.3 60 M113.3 60 C93.6 61.98, 73.18 58.92, 15 60 M113.3 60 C78.25 59.5, 44.19 60.18, 15 60 M15 60 C3.13 59.13, 1.24 56.77, 0 45 M15 60 C2.7 61.7, -2.16 56.4, 0 45 M0 45 C-1.11 39.51, -0.11 33.74, 0 15 M0 45 C-0.84 33.45, 0.31 24.08, 0 15 M0 15 C-0.33 6.3, 3.61 1.92, 15 0 M0 15 C-1.64 4.52, 2.75 -0.86, 15 0" stroke="#1e1e1e" stroke-width="2" fill="none"></path></g><g transform="translate(368.5269714719466 399.02203342721384) rotate(0 52.51995849609375 25)"><text x="52.51995849609375" y="0" font-family="Virgil, Segoe UI Emoji" font-size="20px" fill="#1e1e1e" text-anchor="middle" style="white-space: pre;" direction="ltr" dominant-baseline="text-before-edge">Text </text><text x="52.51995849609375" y="25" font-family="Virgil, Segoe UI Emoji" font-size="20px" fill="#1e1e1e" text-anchor="middle" style="white-space: pre;" direction="ltr" dominant-baseline="text-before-edge">Generation</text></g><g stroke-linecap="round" transform="translate(55.29845569166355 10) rotate(0 87.24388736164019 35.554932422852005)"><path d="M17.78 0 C73.37 0.96, 123.68 -4.96, 156.71 0 C170.4 -2.06, 177.92 3.18, 174.49 17.78 C175.06 23.83, 172.7 36.22, 174.49 53.33 C176.77 65.99, 165.01 68.26, 156.71 71.11 C108.98 71.97, 68.53 69.15, 17.78 71.11 C8.93 73.43, -2.07 67.75, 0 53.33 C0.75 44.79, -1.55 32.83, 0 17.78 C-1.99 2.4, 9.29 -1.83, 17.78 0" stroke="none" stroke-width="0" fill="#eaddd7"></path><path d="M17.78 0 C71.82 0, 125.93 -1.94, 156.71 0 M17.78 0 C50.44 0.5, 84.09 0.73, 156.71 0 M156.71 0 C167.48 0.99, 173.49 4.62, 174.49 17.78 M156.71 0 C166.98 0.34, 173.62 7.83, 174.49 17.78 M174.49 17.78 C176.11 23.12, 175.82 30.59, 174.49 53.33 M174.49 17.78 C174 30.15, 174.77 43.49, 174.49 53.33 M174.49 53.33 C176.46 66.47, 168.05 72.88, 156.71 71.11 M174.49 53.33 C172.38 63.77, 169.1 73.28, 156.71 71.11 M156.71 71.11 C119.26 68.72, 77.55 68.19, 17.78 71.11 M156.71 71.11 C119.45 71.17, 83.64 69.91, 17.78 71.11 M17.78 71.11 C7.25 70.11, -0.47 64.65, 0 53.33 M17.78 71.11 C5.26 73.1, -1.34 64.99, 0 53.33 M0 53.33 C1.3 42.99, 0.32 35.88, 0 17.78 M0 53.33 C-0.43 41.25, 0.65 27.47, 0 17.78 M0 17.78 C-0.71 5.33, 4.74 -1.8, 17.78 0 M0 17.78 C-1.22 6.27, 7.24 1, 17.78 0" stroke="#1e1e1e" stroke-width="2" fill="none"></path></g><g transform="translate(67.82240286775686 33.05493242285195) rotate(0 74.71994018554688 12.5)"><text x="74.71994018554688" y="0" font-family="Virgil, Segoe UI Emoji" font-size="20px" fill="#1e1e1e" text-anchor="middle" style="white-space: pre;" direction="ltr" dominant-baseline="text-before-edge">Input Dataset</text></g><g stroke-linecap="round" transform="translate(95.99808520369379 183.00691978080044) rotate(0 50.348450173342826 21.642462060572996)"><path d="M10.82 0 C43.49 -1, 75.9 -1.69, 89.88 0 C95.57 -2.63, 98.27 4.64, 100.7 10.82 C102.83 16.25, 97 17.21, 100.7 32.46 C101.76 42.71, 97.84 41.34, 89.88 43.28 C68.42 44.63, 38.88 44.87, 10.82 43.28 C3.03 40.99, -3.08 40.02, 0 32.46 C-1.78 21.51, 3.57 15.79, 0 10.82 C0.17 1.7, 2.16 2.15, 10.82 0" stroke="none" stroke-width="0" fill="#e9ecef"></path><path d="M10.82 0 C35.07 -1.17, 62.04 0.59, 89.88 0 M10.82 0 C38.65 -0.15, 67.07 -1.3, 89.88 0 M89.88 0 C95.72 0.29, 99.94 5.26, 100.7 10.82 M89.88 0 C94.94 -1, 102.13 5.65, 100.7 10.82 M100.7 10.82 C102.08 13.56, 102.06 19.08, 100.7 32.46 M100.7 10.82 C101.81 16.95, 100.56 22.67, 100.7 32.46 M100.7 32.46 C98.86 38.45, 97.56 45.17, 89.88 43.28 M100.7 32.46 C100.31 41.17, 95.49 45.49, 89.88 43.28 M89.88 43.28 C71.06 44.08, 52.95 41.02, 10.82 43.28 M89.88 43.28 C62.03 42.27, 32.63 42.51, 10.82 43.28 M10.82 43.28 C3.03 45.01, -1.16 39.51, 0 32.46 M10.82 43.28 C2.81 41.49, -1.25 40.85, 0 32.46 M0 32.46 C1.16 25.43, 1.39 20.05, 0 10.82 M0 32.46 C-0.43 24.25, -0.67 15.74, 0 10.82 M0 10.82 C-1.06 3.91, 4.75 0.87, 10.82 0 M0 10.82 C1.8 5.62, 5.7 1.93, 10.82 0" stroke="#1e1e1e" stroke-width="2" fill="none"></path></g><g transform="translate(116.7965552134624 192.1493818413735) rotate(0 29.54998016357422 12.5)"><text x="29.54998016357422" y="0" font-family="Virgil, Segoe UI Emoji" font-size="20px" fill="#1e1e1e" text-anchor="middle" style="white-space: pre;" direction="ltr" dominant-baseline="text-before-edge">Batch</text></g><g stroke-linecap="round"><g transform="translate(146.30440828807605 527.5888507910926) rotate(0 0.21736297063807797 -32.023767917974055)"><path d="M-0.79 0.26 C-0.53 -10.45, 0.47 -53.82, 0.71 -64.38 M1 -0.65 C1.19 -11.17, 0.07 -52.3, -0.09 -63.02" stroke="#1e1e1e" stroke-width="2" fill="none"></path></g><g transform="translate(146.30440828807605 527.5888507910926) rotate(0 0.21736297063807797 -32.023767917974055)"><path d="M10.76 -35.05 C8.71 -41.14, 5.21 -47.66, -0.09 -63.02 M10.76 -35.05 C7.16 -46.03, 3.62 -56.26, -0.09 -63.02" stroke="#1e1e1e" stroke-width="2" fill="none"></path></g><g transform="translate(146.30440828807605 527.5888507910926) rotate(0 0.21736297063807797 -32.023767917974055)"><path d="M-9.76 -34.62 C-7.05 -40.68, -5.79 -47.3, -0.09 -63.02 M-9.76 -34.62 C-5.57 -45.66, -1.33 -56.05, -0.09 -63.02" stroke="#1e1e1e" stroke-width="2" fill="none"></path></g></g><mask></mask><g stroke-linecap="round"><g transform="translate(148.07202457436324 698.5337259996494) rotate(0 -1.108677517295746 -45.5719839752461)"><path d="M-1.05 -0.25 C-1.42 -15.45, -1.38 -77.1, -1.46 -92.19 M0.61 -1.43 C0.08 -16.43, -1.59 -75.95, -2.02 -91.2" stroke="#1e1e1e" stroke-width="2" fill="none"></path></g><g transform="translate(148.07202457436324 698.5337259996494) rotate(0 -1.108677517295746 -45.5719839752461)"><path d="M9.03 -63.31 C4.83 -72.27, -0.5 -82.52, -2.02 -91.2 M9.03 -63.31 C6.02 -72.25, 1 -82.52, -2.02 -91.2" stroke="#1e1e1e" stroke-width="2" fill="none"></path></g><g transform="translate(148.07202457436324 698.5337259996494) rotate(0 -1.108677517295746 -45.5719839752461)"><path d="M-11.48 -62.73 C-8.23 -71.73, -6.11 -82.18, -2.02 -91.2 M-11.48 -62.73 C-7.71 -71.77, -5.93 -82.22, -2.02 -91.2" stroke="#1e1e1e" stroke-width="2" fill="none"></path></g></g><mask></mask><g stroke-linecap="round"><g transform="translate(214.02835601230845 423.07440681053504) rotate(0 70.52170827296231 0.15778169275080245)"><path d="M-1.14 1.05 C22.52 1.25, 118.42 1.31, 142.07 1.3 M0.46 0.55 C24.05 0.43, 118.43 -0.04, 141.66 -0.31" stroke="#1e1e1e" stroke-width="2" fill="none"></path></g><g transform="translate(214.02835601230845 423.07440681053504) rotate(0 70.52170827296231 0.15778169275080245)"><path d="M113.55 10.17 C123.93 8.92, 132.46 3.47, 141.66 -0.31 M113.55 10.17 C122.42 6.95, 132.83 3.28, 141.66 -0.31" stroke="#1e1e1e" stroke-width="2" fill="none"></path></g><g transform="translate(214.02835601230845 423.07440681053504) rotate(0 70.52170827296231 0.15778169275080245)"><path d="M113.39 -10.35 C123.83 -5.29, 132.41 -4.43, 141.66 -0.31 M113.39 -10.35 C122.51 -6.35, 132.98 -2.8, 141.66 -0.31" stroke="#1e1e1e" stroke-width="2" fill="none"></path></g></g><mask></mask><g stroke-linecap="round" transform="translate(822.3947995831695 359.03936524342635) rotate(0 64.14987026814333 30)"><path d="M15 0 C49.26 -4.71, 86.91 1.41, 113.3 0 C120.71 3.47, 128.8 7.49, 128.3 15 C125.49 25.07, 129.04 30.35, 128.3 45 C124.85 54.44, 125.11 58.27, 113.3 60 C80.38 62.41, 42.73 59.41, 15 60 C3.32 60.87, -2.87 52.04, 0 45 C-2.4 38.34, -1.41 26.76, 0 15 C0.25 6.22, 6.16 -0.58, 15 0" stroke="none" stroke-width="0" fill="#ffec99"></path><path d="M15 0 C42.61 -1.84, 71.67 1.51, 113.3 0 M15 0 C51.45 1.4, 86.75 1.49, 113.3 0 M113.3 0 C121.74 1.63, 128.2 3.54, 128.3 15 M113.3 0 C121.95 2.3, 127.33 7.14, 128.3 15 M128.3 15 C129.11 24.59, 126.98 35.28, 128.3 45 M128.3 15 C128.76 26.14, 128.5 36.33, 128.3 45 M128.3 45 C127.8 53.18, 124.36 61.44, 113.3 60 M128.3 45 C128.81 54.93, 121.52 58.27, 113.3 60 M113.3 60 C85.02 58.25, 54.67 59.46, 15 60 M113.3 60 C76.85 59.12, 39.82 58.76, 15 60 M15 60 C3.76 60.11, 1.66 54.21, 0 45 M15 60 C6.86 62.26, 0.69 55.95, 0 45 M0 45 C1.93 37.97, -1.53 29.48, 0 15 M0 45 C0.16 38.07, -0.35 32.96, 0 15 M0 15 C-0.9 3.23, 4.3 -0.54, 15 0 M0 15 C0.11 2.79, 3.76 0.95, 15 0" stroke="#1e1e1e" stroke-width="2" fill="none"></path></g><g stroke-linecap="round" transform="translate(811.426023950602 370.9693222458583) rotate(0 64.14987026814333 30)"><path d="M15 0 C52.89 4.48, 87.75 5.06, 113.3 0 C123.8 2.49, 128.83 7.11, 128.3 15 C128.26 21.97, 124.38 35.44, 128.3 45 C130.11 53.27, 125.59 56.67, 113.3 60 C79.95 59.31, 43.12 61.63, 15 60 C2.13 57.04, -1.95 55.62, 0 45 C-0.97 31.86, 0.6 26.93, 0 15 C1.16 4.42, 5.12 1.54, 15 0" stroke="none" stroke-width="0" fill="#ffec99"></path><path d="M15 0 C46.85 2.44, 76.53 2.34, 113.3 0 M15 0 C36.26 0.1, 55.79 0.3, 113.3 0 M113.3 0 C123.2 -1.46, 127.12 7, 128.3 15 M113.3 0 C122.33 2.14, 128.47 5.08, 128.3 15 M128.3 15 C127.09 24.55, 129.32 30.47, 128.3 45 M128.3 15 C128.62 23.92, 128.19 30.66, 128.3 45 M128.3 45 C129.36 56.44, 123.74 59.94, 113.3 60 M128.3 45 C126.52 53.27, 123.43 60.03, 113.3 60 M113.3 60 C87.78 58.97, 60.86 60.43, 15 60 M113.3 60 C88.11 58.61, 60.99 59.55, 15 60 M15 60 C6.66 59.21, 1.62 56.97, 0 45 M15 60 C5.69 60.95, -0.33 53.17, 0 45 M0 45 C-2.03 40.52, -1.96 32.99, 0 15 M0 45 C-0.38 38.16, -0.51 28.75, 0 15 M0 15 C-0.7 4.46, 5.1 -1.92, 15 0 M0 15 C-1.24 5.95, 6.49 -1.5, 15 0" stroke="#1e1e1e" stroke-width="2" fill="none"></path></g><g stroke-linecap="round" transform="translate(608.1397955147077 499.56011631456306) rotate(0 62.666015625 36.09765625)"><path d="M18.05 0 C34.19 2.18, 56.02 1.21, 107.28 0 C119.84 2.11, 127.14 2.89, 125.33 18.05 C121.95 28.95, 127.22 39.26, 125.33 54.15 C127.62 62.85, 121.06 75.01, 107.28 72.2 C74.98 72.42, 43.16 68.59, 18.05 72.2 C4.07 72.82, 0.78 63.87, 0 54.15 C0.49 43.83, 1.4 30.48, 0 18.05 C0.12 7.56, 3.28 1.03, 18.05 0" stroke="none" stroke-width="0" fill="#b2f2bb"></path><path d="M18.05 0 C38.16 0.76, 54 0.91, 107.28 0 M18.05 0 C48.72 0.26, 80.9 -1.28, 107.28 0 M107.28 0 C118.14 2, 124.49 7.88, 125.33 18.05 M107.28 0 C119.48 0.08, 124.34 6.94, 125.33 18.05 M125.33 18.05 C125.99 29.62, 124.62 41.96, 125.33 54.15 M125.33 18.05 C125.15 30.82, 125.93 46.12, 125.33 54.15 M125.33 54.15 C125.78 66.12, 117.77 70.69, 107.28 72.2 M125.33 54.15 C125.46 66.21, 118.73 74.23, 107.28 72.2 M107.28 72.2 C88.76 73.23, 66.41 73.29, 18.05 72.2 M107.28 72.2 C84.51 71.47, 63.82 71.01, 18.05 72.2 M18.05 72.2 C7.63 74.16, 0.6 67.01, 0 54.15 M18.05 72.2 C5.69 70.36, -2.22 68.13, 0 54.15 M0 54.15 C-1.38 40.73, -0.56 27.31, 0 18.05 M0 54.15 C-0.33 44.16, -0.23 35.68, 0 18.05 M0 18.05 C0.1 4.09, 4.94 0.83, 18.05 0 M0 18.05 C1.49 4.52, 7.93 -1.02, 18.05 0" stroke="#1e1e1e" stroke-width="2" fill="none"></path></g><g stroke-linecap="round" transform="translate(598.5561169239536 511.33944467965114) rotate(0 62.666015625 36.09765625)"><path d="M18.05 0 C52.46 0.95, 86.41 0.56, 107.28 0 C121.12 -3.12, 125.97 6.44, 125.33 18.05 C126.52 23.62, 127 29.3, 125.33 54.15 C127.07 68.99, 120.87 73.1, 107.28 72.2 C81.24 69.62, 58.99 73.21, 18.05 72.2 C6.79 69.89, 0.71 64.86, 0 54.15 C1.12 46.24, 0.08 41.03, 0 18.05 C-2.73 7.05, 5.21 -0.14, 18.05 0" stroke="none" stroke-width="0" fill="#b2f2bb"></path><path d="M18.05 0 C50.07 0.96, 86.68 0.29, 107.28 0 M18.05 0 C50.3 -1.45, 82.05 0.27, 107.28 0 M107.28 0 C118.47 1.86, 125.48 6.09, 125.33 18.05 M107.28 0 C118.32 0.92, 125.76 4.49, 125.33 18.05 M125.33 18.05 C125.02 33.11, 127.07 46.75, 125.33 54.15 M125.33 18.05 C125.77 31.89, 125.46 44.26, 125.33 54.15 M125.33 54.15 C123.78 64.67, 119.43 72.22, 107.28 72.2 M125.33 54.15 C124.75 68.22, 117.59 73.89, 107.28 72.2 M107.28 72.2 C81.08 73.94, 55.32 74.02, 18.05 72.2 M107.28 72.2 C89.18 71.85, 70.23 73.23, 18.05 72.2 M18.05 72.2 C6.61 73.02, -0.29 64.59, 0 54.15 M18.05 72.2 C3.79 74.14, 1.77 64.14, 0 54.15 M0 54.15 C-0.57 40.78, -0.65 26, 0 18.05 M0 54.15 C-0.19 39.98, 0.21 25.4, 0 18.05 M0 18.05 C-1.08 6.84, 7.31 -1.3, 18.05 0 M0 18.05 C1.91 5, 3.95 0.14, 18.05 0" stroke="#1e1e1e" stroke-width="2" fill="none"></path></g><g stroke-linecap="round" transform="translate(561.7757145675987 691.5258923914593) rotate(0 94.427734375 42.5)"><path d="M21.25 0 C76.94 -0.23, 131.76 -2.74, 167.61 0 M21.25 0 C76.48 2.06, 132.47 1.99, 167.61 0 M167.61 0 C181.92 0.07, 187.99 7.89, 188.86 21.25 M167.61 0 C182.2 -1.53, 190.98 8.12, 188.86 21.25 M188.86 21.25 C190.33 34.52, 190.02 46.53, 188.86 63.75 M188.86 21.25 C189.3 30.1, 188.31 38.25, 188.86 63.75 M188.86 63.75 C188.97 77.94, 181.26 86.77, 167.61 85 M188.86 63.75 C187.13 79.61, 181.44 86.77, 167.61 85 M167.61 85 C114.1 87.2, 60.91 84.65, 21.25 85 M167.61 85 C123.68 85.4, 78.44 84.83, 21.25 85 M21.25 85 C6.8 83.41, -1.93 79.61, 0 63.75 M21.25 85 C8.86 82.96, 1.86 75.96, 0 63.75 M0 63.75 C-0.77 49.95, 1.88 36.54, 0 21.25 M0 63.75 C0.2 53.8, -0.39 46.19, 0 21.25 M0 21.25 C1.29 5.78, 8.75 -0.88, 21.25 0 M0 21.25 C-2.07 7.22, 8.93 -1.66, 21.25 0" stroke="#1e1e1e" stroke-width="2" fill="none"></path></g><g transform="translate(585.8535038742393 721.5258923914593) rotate(0 70.34994506835938 12.5)"><text x="70.34994506835938" y="0" font-family="Virgil, Segoe UI Emoji" font-size="20px" fill="#1e1e1e" text-anchor="middle" style="white-space: pre;" direction="ltr" dominant-baseline="text-before-edge">Labelling Task</text></g><g stroke-linecap="round" transform="translate(587.1853703835332 522.0577569528924) rotate(0 62.666015625 36.09765625)"><path d="M18.05 0 C50.69 1.82, 78.53 -2.06, 107.28 0 C118.75 1.81, 123.61 8.3, 125.33 18.05 C127.2 26.44, 124.2 31.35, 125.33 54.15 C126.2 63.31, 116.36 70.25, 107.28 72.2 C79.67 69.84, 47.15 71.42, 18.05 72.2 C7.24 73.36, -0.58 66.3, 0 54.15 C-0.31 41.63, -0.64 31.09, 0 18.05 C2.22 7.41, 6.91 -0.21, 18.05 0" stroke="none" stroke-width="0" fill="#b2f2bb"></path><path d="M18.05 0 C50.67 0.6, 78.58 -0.48, 107.28 0 M18.05 0 C53.8 -0.8, 88.97 -0.43, 107.28 0 M107.28 0 C119.69 -1.33, 127.18 6.91, 125.33 18.05 M107.28 0 C119.39 -0.55, 126.37 7.83, 125.33 18.05 M125.33 18.05 C123.74 30.62, 127 41.52, 125.33 54.15 M125.33 18.05 C125.11 28.79, 124.8 40.39, 125.33 54.15 M125.33 54.15 C123.83 67.65, 119.02 73.74, 107.28 72.2 M125.33 54.15 C126.68 65.33, 120.72 71, 107.28 72.2 M107.28 72.2 C74.81 73.3, 41.33 73.26, 18.05 72.2 M107.28 72.2 C71.6 71.77, 35.24 73.41, 18.05 72.2 M18.05 72.2 C7.56 70.42, 1.62 64.48, 0 54.15 M18.05 72.2 C6.24 71.19, 0.44 65.08, 0 54.15 M0 54.15 C-2.08 43.79, -0.85 34.92, 0 18.05 M0 54.15 C0.84 46.14, 1.03 38.99, 0 18.05 M0 18.05 C-1.8 6.14, 7.62 -1.44, 18.05 0 M0 18.05 C2.21 6.33, 7.61 0.34, 18.05 0" stroke="#1e1e1e" stroke-width="2" fill="none"></path></g><g transform="translate(616.4914235451542 545.6554132028924) rotate(0 33.359962463378906 12.5)"><text x="33.359962463378906" y="0" font-family="Virgil, Segoe UI Emoji" font-size="20px" fill="#1e1e1e" text-anchor="middle" style="white-space: pre;" direction="ltr" dominant-baseline="text-before-edge">Prompt</text></g><g stroke-linecap="round" transform="translate(588.5334295311591 377.95112333468626) rotate(0 62.666015625 36.09765625)"><path d="M18.05 0 C45.32 3.36, 71.98 3.83, 107.28 0 C115.99 1.74, 128.14 7.57, 125.33 18.05 C125.94 26.91, 122.11 39.57, 125.33 54.15 C125.96 66.96, 117.01 72.91, 107.28 72.2 C85.01 73.47, 59.71 72.43, 18.05 72.2 C7.56 69.46, 1.03 65.38, 0 54.15 C2.43 44.85, 1.09 32.56, 0 18.05 C-1.18 6.41, 5.36 2.55, 18.05 0" stroke="none" stroke-width="0" fill="#fcc2d7"></path><path d="M18.05 0 C46.37 -0.32, 72.57 0.67, 107.28 0 M18.05 0 C45.32 -1.02, 73.13 0.09, 107.28 0 M107.28 0 C119.38 -0.48, 126.23 7.59, 125.33 18.05 M107.28 0 C119.75 1.46, 124.76 3.92, 125.33 18.05 M125.33 18.05 C125.54 29.24, 124.09 43.65, 125.33 54.15 M125.33 18.05 C124.49 29.66, 125.09 40.56, 125.33 54.15 M125.33 54.15 C126.5 65.44, 120.54 71.16, 107.28 72.2 M125.33 54.15 C126.83 64.16, 117.89 72.32, 107.28 72.2 M107.28 72.2 C75.08 73.51, 39.77 72.63, 18.05 72.2 M107.28 72.2 C88.39 72.06, 68.77 72.1, 18.05 72.2 M18.05 72.2 C6.21 71.32, 0.38 65.22, 0 54.15 M18.05 72.2 C5.27 74.15, -1.03 64.14, 0 54.15 M0 54.15 C-1.83 43.49, 0.92 36.29, 0 18.05 M0 54.15 C-1.2 45.73, 0.5 36.47, 0 18.05 M0 18.05 C1.93 6.29, 7.4 0.29, 18.05 0 M0 18.05 C1.35 7.17, 4.02 0.41, 18.05 0" stroke="#1e1e1e" stroke-width="2" fill="none"></path></g><g transform="translate(610.8594793358466 389.04877958468626) rotate(0 40.3399658203125 25)"><text x="40.3399658203125" y="0" font-family="Virgil, Segoe UI Emoji" font-size="20px" fill="#1e1e1e" text-anchor="middle" style="white-space: pre;" direction="ltr" dominant-baseline="text-before-edge">Labelling</text><text x="40.3399658203125" y="25" font-family="Virgil, Segoe UI Emoji" font-size="20px" fill="#1e1e1e" text-anchor="middle" style="white-space: pre;" direction="ltr" dominant-baseline="text-before-edge">LLM</text></g><g stroke-linecap="round" transform="translate(800.6869362815978 381.37140974133047) rotate(0 64.14987026814333 30)"><path d="M15 0 C46.12 0.62, 86.7 0.43, 113.3 0 C124.2 -1.45, 126.62 5.87, 128.3 15 C128.48 22.38, 125.55 28.92, 128.3 45 C126.98 51.51, 123.55 61.22, 113.3 60 C82.18 57.33, 49.01 59.26, 15 60 C4.86 58.87, 1.69 57.22, 0 45 C-1.32 35.24, -0.79 27.23, 0 15 C3.07 3.15, 7.1 0.81, 15 0" stroke="none" stroke-width="0" fill="#ffec99"></path><path d="M15 0 C40.41 -0.94, 66.49 0.3, 113.3 0 M15 0 C37.99 -0.68, 61.35 0.35, 113.3 0 M113.3 0 C123.68 1.27, 127.8 3.18, 128.3 15 M113.3 0 C124.52 1.66, 128.81 4.93, 128.3 15 M128.3 15 C128.1 21.17, 129.85 26.86, 128.3 45 M128.3 15 C128.84 25.84, 128.87 36.9, 128.3 45 M128.3 45 C129.6 53.24, 122.06 60.11, 113.3 60 M128.3 45 C130.21 54.09, 125.16 62.26, 113.3 60 M113.3 60 C79.29 57.93, 50.15 61.4, 15 60 M113.3 60 C92.62 58.72, 71.94 58.68, 15 60 M15 60 C4.35 61.7, -0.9 53.23, 0 45 M15 60 C4.2 59.38, 0.11 52.79, 0 45 M0 45 C-1.43 39.29, -1.01 28.44, 0 15 M0 45 C0.72 35.96, 0.45 26.78, 0 15 M0 15 C1.17 6, 3.26 0.35, 15 0 M0 15 C0.27 2.75, 2.79 -0.36, 15 0" stroke="#1e1e1e" stroke-width="2" fill="none"></path></g><g transform="translate(812.3168480536474 386.37140974133047) rotate(0 52.51995849609375 25)"><text x="52.51995849609375" y="0" font-family="Virgil, Segoe UI Emoji" font-size="20px" fill="#1e1e1e" text-anchor="middle" style="white-space: pre;" direction="ltr" dominant-baseline="text-before-edge">Text </text><text x="52.51995849609375" y="25" font-family="Virgil, Segoe UI Emoji" font-size="20px" fill="#1e1e1e" text-anchor="middle" style="white-space: pre;" direction="ltr" dominant-baseline="text-before-edge">Generation</text></g><g stroke-linecap="round"><g transform="translate(649.7455120508248 518.0605641564936) rotate(0 0.1785391735616031 -32.02376791797383)"><path d="M0.22 -0.8 C0.55 -11.46, 1.44 -52.92, 1.46 -63.51 M-1.12 1.4 C-0.8 -9.67, 0.97 -54.59, 1.1 -65.35" stroke="#1e1e1e" stroke-width="2" fill="none"></path></g><g transform="translate(649.7455120508248 518.0605641564936) rotate(0 0.1785391735616031 -32.02376791797383)"><path d="M10.57 -36.88 C6.69 -42.33, 6.49 -51.41, 1.1 -65.35 M10.57 -36.88 C8.01 -44.04, 4.96 -53.45, 1.1 -65.35" stroke="#1e1e1e" stroke-width="2" fill="none"></path></g><g transform="translate(649.7455120508248 518.0605641564936) rotate(0 0.1785391735616031 -32.02376791797383)"><path d="M-9.94 -37.45 C-8.55 -42.79, -3.49 -51.73, 1.1 -65.35 M-9.94 -37.45 C-6.83 -44.61, -4.22 -53.86, 1.1 -65.35" stroke="#1e1e1e" stroke-width="2" fill="none"></path></g></g><mask></mask><g stroke-linecap="round"><g transform="translate(651.4000031939877 688.6797832644155) rotate(0 -1.1065456124476896 -45.40915592492888)"><path d="M1.11 0.54 C0.71 -14.51, -1.71 -76.03, -2.17 -91.1 M0.23 -0.22 C-0.34 -15.03, -2.7 -74.47, -3.1 -89.72" stroke="#1e1e1e" stroke-width="2" fill="none"></path></g><g transform="translate(651.4000031939877 688.6797832644155) rotate(0 -1.1065456124476896 -45.40915592492888)"><path d="M8.11 -61.89 C5.62 -70.59, 0.67 -78.62, -3.1 -89.72 M8.11 -61.89 C3.56 -73.27, 0.09 -82.18, -3.1 -89.72" stroke="#1e1e1e" stroke-width="2" fill="none"></path></g><g transform="translate(651.4000031939877 688.6797832644155) rotate(0 -1.1065456124476896 -45.40915592492888)"><path d="M-12.4 -61.19 C-8.35 -70.3, -6.76 -78.56, -3.1 -89.72 M-12.4 -61.19 C-9.18 -72.97, -4.88 -82.15, -3.1 -89.72" stroke="#1e1e1e" stroke-width="2" fill="none"></path></g></g><mask></mask><g stroke-linecap="round"><g transform="translate(718.2535239449585 415.79400048907144) rotate(0 40.25154158402597 0.05563024531903693)"><path d="M-0.97 0.04 C12.38 0.26, 67.15 0.8, 80.88 0.85 M0.72 -0.99 C13.87 -1.06, 66.73 -1.35, 80.13 -0.89" stroke="#1e1e1e" stroke-width="2" fill="none"></path></g><g transform="translate(718.2535239449585 415.79400048907144) rotate(0 40.25154158402597 0.05563024531903693)"><path d="M51.83 9.04 C62.29 6.27, 73.83 3.55, 80.13 -0.89 M51.83 9.04 C61 5.45, 69.2 3.08, 80.13 -0.89" stroke="#1e1e1e" stroke-width="2" fill="none"></path></g><g transform="translate(718.2535239449585 415.79400048907144) rotate(0 40.25154158402597 0.05563024531903693)"><path d="M52.07 -11.48 C62.36 -6.74, 73.8 -1.94, 80.13 -0.89 M52.07 -11.48 C61.16 -8.5, 69.29 -4.31, 80.13 -0.89" stroke="#1e1e1e" stroke-width="2" fill="none"></path></g></g><mask></mask><g stroke-linecap="round" transform="translate(1092.7245497665294 375.4375177810948) rotate(0 64.14987026814333 30)"><path d="M15 0 C44.07 1.67, 76.79 1.19, 113.3 0 C125.26 2.31, 125.45 3.97, 128.3 15 C126.38 26.88, 130.15 29.92, 128.3 45 C125.88 52.08, 120.16 62.54, 113.3 60 C73.2 57.78, 40.1 59.09, 15 60 C6.98 63.14, -1.81 53.54, 0 45 C1.14 34.59, 1.62 26.85, 0 15 C0.14 2.26, 7.99 1.21, 15 0" stroke="none" stroke-width="0" fill="#d0bfff"></path><path d="M15 0 C39.65 2.24, 63.1 1.34, 113.3 0 M15 0 C49.83 0.64, 84.29 0.03, 113.3 0 M113.3 0 C123.06 0.06, 128.95 5.19, 128.3 15 M113.3 0 C124.77 1.52, 126.39 5.15, 128.3 15 M128.3 15 C127.2 27.12, 126.47 34.7, 128.3 45 M128.3 15 C129.09 25.02, 127.79 32.87, 128.3 45 M128.3 45 C129.32 55.98, 123.02 58.66, 113.3 60 M128.3 45 C129.96 56.88, 121.82 58.29, 113.3 60 M113.3 60 C75.74 58.63, 40.33 59.95, 15 60 M113.3 60 C92.81 61.3, 74.01 59.52, 15 60 M15 60 C3.25 61.15, 0.99 55.38, 0 45 M15 60 C7.17 59.94, 1.86 56.21, 0 45 M0 45 C1.16 36.4, -1.04 25.15, 0 15 M0 45 C0.31 38.54, -0.39 32.1, 0 15 M0 15 C0.01 5.19, 3.71 -1.17, 15 0 M0 15 C0.01 6.27, 3.91 -0.51, 15 0" stroke="#1e1e1e" stroke-width="2" fill="none"></path></g><g transform="translate(1098.004463064458 380.4375177810948) rotate(0 58.869956970214844 25)"><text x="58.869956970214844" y="0" font-family="Virgil, Segoe UI Emoji" font-size="20px" fill="#1e1e1e" text-anchor="middle" style="white-space: pre;" direction="ltr" dominant-baseline="text-before-edge">Scores and </text><text x="58.869956970214844" y="25" font-family="Virgil, Segoe UI Emoji" font-size="20px" fill="#1e1e1e" text-anchor="middle" style="white-space: pre;" direction="ltr" dominant-baseline="text-before-edge">rationales</text></g><g stroke-linecap="round"><g transform="translate(145.3728863736119 82.1098648457039) rotate(0 1.3729690928873879 49.94852746754822)"><path d="M1.01 0.47 C1.42 17.04, 2.12 82.13, 2.22 98.78 M0.09 -0.33 C0.31 16.41, 0.36 83.3, 1 99.74" stroke="#1e1e1e" stroke-width="2" fill="none"></path></g><g transform="translate(145.3728863736119 82.1098648457039) rotate(0 1.3729690928873879 49.94852746754822)"><path d="M-9.74 71.73 C-6.09 78.63, -5.71 85.54, 1 99.74 M-9.74 71.73 C-6.88 81, -1.82 90.74, 1 99.74" stroke="#1e1e1e" stroke-width="2" fill="none"></path></g><g transform="translate(145.3728863736119 82.1098648457039) rotate(0 1.3729690928873879 49.94852746754822)"><path d="M10.78 71.37 C8.66 78.55, 3.28 85.56, 1 99.74 M10.78 71.37 C6.64 80.83, 4.71 90.69, 1 99.74" stroke="#1e1e1e" stroke-width="2" fill="none"></path></g></g><mask></mask><g stroke-linecap="round" transform="translate(1063.334084612888 158.3739396929866) rotate(0 87.24388736164042 35.554932422852005)"><path d="M17.78 0 C71.21 -4.2, 120.03 -4.29, 156.71 0 C166.38 -3.34, 173.94 2.77, 174.49 17.78 C176.66 29.9, 177.95 39.36, 174.49 53.33 C177.61 62.17, 170.4 69.36, 156.71 71.11 C121.52 68.34, 82.95 74.13, 17.78 71.11 C3.04 69.47, 2.18 67.12, 0 53.33 C1.44 46.95, 0.26 34.67, 0 17.78 C2.4 8.44, 4.17 -0.71, 17.78 0" stroke="none" stroke-width="0" fill="#99e9f2"></path><path d="M17.78 0 C50.44 0.51, 80.99 2.16, 156.71 0 M17.78 0 C47.63 -0.57, 76.51 0.29, 156.71 0 M156.71 0 C170.37 -0.49, 175.95 6.04, 174.49 17.78 M156.71 0 C168.34 -0.18, 174.62 4.24, 174.49 17.78 M174.49 17.78 C174.98 29.51, 172.91 42.4, 174.49 53.33 M174.49 17.78 C175.46 28.21, 173.99 40.15, 174.49 53.33 M174.49 53.33 C176.3 65.04, 170.28 72.04, 156.71 71.11 M174.49 53.33 C172.45 67.25, 167.11 73.27, 156.71 71.11 M156.71 71.11 C127.31 72.87, 98.41 73.69, 17.78 71.11 M156.71 71.11 C126.21 71.31, 96.37 71.56, 17.78 71.11 M17.78 71.11 C4.71 71.35, 1.08 66.65, 0 53.33 M17.78 71.11 C6.71 71.41, -0.23 65.12, 0 53.33 M0 53.33 C-0.71 47.05, -0.21 36.13, 0 17.78 M0 53.33 C-0.92 44.82, -1.22 36.68, 0 17.78 M0 17.78 C1.16 3.96, 6.42 -1.45, 17.78 0 M0 17.78 C0.22 7.03, 8.17 -1.37, 17.78 0" stroke="#1e1e1e" stroke-width="2" fill="none"></path></g><g transform="translate(1107.2380061542158 168.92887211583866) rotate(0 43.3399658203125 25)"><text x="43.3399658203125" y="0" font-family="Virgil, Segoe UI Emoji" font-size="20px" fill="#1e1e1e" text-anchor="middle" style="white-space: pre;" direction="ltr" dominant-baseline="text-before-edge">Output </text><text x="43.3399658203125" y="25" font-family="Virgil, Segoe UI Emoji" font-size="20px" fill="#1e1e1e" text-anchor="middle" style="white-space: pre;" direction="ltr" dominant-baseline="text-before-edge">Dataset</text></g><g stroke-linecap="round"><g transform="translate(1155.5287849681117 370.4724718714417) rotate(0 -2.242682889284424 -69.09336935127209)"><path d="M-0.71 0.32 C-1.34 -22.97, -2.93 -115.85, -3.43 -138.78 M1.12 -0.55 C0.39 -23.77, -2.96 -114.47, -3.82 -137.55" stroke="#1e1e1e" stroke-width="2" fill="none"></path></g><g transform="translate(1155.5287849681117 370.4724718714417) rotate(0 -2.242682889284424 -69.09336935127209)"><path d="M7.48 -109.76 C4.06 -117.25, -1.21 -126.91, -3.82 -137.55 M7.48 -109.76 C3.18 -121.18, -1.11 -131.22, -3.82 -137.55" stroke="#1e1e1e" stroke-width="2" fill="none"></path></g><g transform="translate(1155.5287849681117 370.4724718714417) rotate(0 -2.242682889284424 -69.09336935127209)"><path d="M-13.03 -109 C-9.67 -116.63, -8.16 -126.53, -3.82 -137.55 M-13.03 -109 C-9.56 -120.6, -6.08 -130.93, -3.82 -137.55" stroke="#1e1e1e" stroke-width="2" fill="none"></path></g></g><mask></mask><g stroke-linecap="round"><g transform="translate(428.8292081349805 390.3266388067875) rotate(0 316.44946219155986 -99.19821560623342)"><path d="M-0.16 -1.07 C9.38 -29.95, -47.18 -139.26, 58.2 -172.32 C163.58 -205.37, 536.22 -195.07, 632.12 -199.4 M-1.71 0.98 C8.16 -27.81, -45.46 -137.69, 60.59 -170.96 C166.65 -204.22, 539.01 -194.25, 634.61 -198.61" stroke="#1e1e1e" stroke-width="2" fill="none"></path></g><g transform="translate(428.8292081349805 390.3266388067875) rotate(0 316.44946219155986 -99.19821560623342)"><path d="M606.53 -188.04 C615.21 -192.98, 626.98 -197.23, 634.61 -198.61 M606.53 -188.04 C612.41 -189.59, 619.09 -193.33, 634.61 -198.61" stroke="#1e1e1e" stroke-width="2" fill="none"></path></g><g transform="translate(428.8292081349805 390.3266388067875) rotate(0 316.44946219155986 -99.19821560623342)"><path d="M606.31 -208.56 C615.23 -205.8, 627.09 -202.34, 634.61 -198.61 M606.31 -208.56 C612.35 -205.67, 619.09 -204.97, 634.61 -198.61" stroke="#1e1e1e" stroke-width="2" fill="none"></path></g></g><mask></mask><g transform="translate(941.3996435808131 435.23377303434097) rotate(0 72.93352508544922 21.91440844648878)"><text x="72.93352508544922" y="0" font-family="Virgil, Segoe UI Emoji" font-size="17.531526757191028px" fill="#1e1e1e" text-anchor="middle" style="white-space: pre;" direction="ltr" dominant-baseline="text-before-edge">Extract outputs</text><text x="72.93352508544922" y="21.914408446488785" font-family="Virgil, Segoe UI Emoji" font-size="17.531526757191028px" fill="#1e1e1e" text-anchor="middle" style="white-space: pre;" direction="ltr" dominant-baseline="text-before-edge">from text</text></g><g stroke-linecap="round"><g transform="translate(421.89995441473275 458.4744294776493) rotate(0 67.14453125 139.7968749999999)"><path d="M0.95 0.2 C1.75 42.96, -16.79 211.09, 5.57 257.73 C27.94 304.38, 113.84 276.45, 135.12 280.08 M-0.01 -0.74 C0.55 42.22, -17.99 209.74, 4.48 256.2 C26.95 302.65, 113.37 273.93, 134.8 277.99" stroke="#1e1e1e" stroke-width="2" fill="none"></path></g><g transform="translate(421.89995441473275 458.4744294776493) rotate(0 67.14453125 139.7968749999999)"><path d="M107.37 290.15 C117.55 285.05, 129.05 282.49, 134.8 277.99 M107.37 290.15 C117.46 286.13, 127.01 282.9, 134.8 277.99" stroke="#1e1e1e" stroke-width="2" fill="none"></path></g><g transform="translate(421.89995441473275 458.4744294776493) rotate(0 67.14453125 139.7968749999999)"><path d="M105.97 269.68 C116.85 272, 128.86 276.88, 134.8 277.99 M105.97 269.68 C116.37 272.62, 126.4 276.36, 134.8 277.99" stroke="#1e1e1e" stroke-width="2" fill="none"></path></g></g><mask></mask><g stroke-linecap="round"><g transform="translate(91.45464191473275 210.68536697764932) rotate(0 -38.886718749999886 267.1914062499999)"><path d="M0.76 0.92 C-10.33 11.32, -52.63 -21.85, -65.8 62.5 C-78.97 146.86, -83.59 428.49, -78.26 507.04 C-72.93 585.6, -41.38 529.27, -33.81 533.81 M-0.3 0.36 C-11.57 10.96, -53.34 -20.55, -66.51 64.09 C-79.67 148.74, -84.76 429.83, -79.28 508.25 C-73.81 586.67, -41.21 530.21, -33.66 534.62" stroke="#1e1e1e" stroke-width="2" fill="none"></path></g><g transform="translate(91.45464191473275 210.68536697764932) rotate(0 -38.886718749999886 267.1914062499999)"><path d="M-50.1 554.63 C-42.65 548.06, -38.1 539.28, -33.66 534.62 M-50.1 554.63 C-44.81 549.01, -40.43 542.8, -33.66 534.62" stroke="#1e1e1e" stroke-width="2" fill="none"></path></g><g transform="translate(91.45464191473275 210.68536697764932) rotate(0 -38.886718749999886 267.1914062499999)"><path d="M-59.12 539.38 C-48.41 538.25, -40.6 534.97, -33.66 534.62 M-59.12 539.38 C-51.31 538.09, -44.39 536.18, -33.66 534.62" stroke="#1e1e1e" stroke-width="2" fill="none"></path></g></g><mask></mask><g stroke-linecap="round"><g transform="translate(932.9250459966706 406.50148041465116) rotate(0 79.44113991477252 -0.701349431818187)"><path d="M-0.29 0.46 C26.29 0.24, 132.81 -1.88, 159.54 -2.39 M1.75 -0.34 C28.24 -0.36, 132.58 -1.12, 158.94 -1.37" stroke="#1e1e1e" stroke-width="2" fill="none"></path></g><g transform="translate(932.9250459966706 406.50148041465116) rotate(0 79.44113991477252 -0.701349431818187)"><path d="M130.83 9.12 C140.19 7.12, 146.27 4.84, 158.94 -1.37 M130.83 9.12 C136.8 7.31, 142.16 5.28, 158.94 -1.37" stroke="#1e1e1e" stroke-width="2" fill="none"></path></g><g transform="translate(932.9250459966706 406.50148041465116) rotate(0 79.44113991477252 -0.701349431818187)"><path d="M130.67 -11.4 C139.89 -7.2, 146.02 -3.28, 158.94 -1.37 M130.67 -11.4 C136.6 -9.03, 141.99 -6.9, 158.94 -1.37" stroke="#1e1e1e" stroke-width="2" fill="none"></path></g></g><mask></mask></svg>