<svg width="1211" height="427" viewBox="0 0 1211 427" fill="none" xmlns="http://www.w3.org/2000/svg">
<mask id="mask0_15_2" style="mask-type:luminance" maskUnits="userSpaceOnUse" x="0" y="0" width="1211" height="427">
<path d="M1210.94 0H0V427H1210.94V0Z" fill="white"/>
</mask>
<g mask="url(#mask0_15_2)">
<mask id="mask1_15_2" style="mask-type:luminance" maskUnits="userSpaceOnUse" x="0" y="0" width="1211" height="427">
<path d="M1210.94 0H0V427H1210.94V0Z" fill="white"/>
</mask>
<g mask="url(#mask1_15_2)">
<path d="M191.856 226.553L199.355 362.21C199.488 363.685 200.168 365.058 201.261 366.058C202.355 367.058 203.783 367.613 205.265 367.613C206.747 367.613 208.175 367.058 209.268 366.058C210.362 365.058 211.042 363.685 211.174 362.21L218.341 226.553H191.856Z" fill="#2F7889"/>
<path d="M204.766 306.722C198.976 308.716 197.314 315.266 196.887 320.582C196.887 320.582 198.501 347.732 199.118 362.257C199.25 363.733 199.93 365.106 201.024 366.106C202.117 367.106 203.546 367.66 205.027 367.66C206.509 367.66 207.937 367.106 209.031 366.106C210.125 365.106 210.804 363.733 210.937 362.257C211.744 347.353 213.215 313.984 213.215 313.984C213.215 313.984 210.605 304.491 204.766 306.722Z" fill="#84B0C1"/>
<g opacity="0.75">
<mask id="mask2_15_2" style="mask-type:luminance" maskUnits="userSpaceOnUse" x="89" y="58" width="322" height="233">
<path d="M410.719 58.7149H89.8522V290.679H410.719V58.7149Z" fill="white"/>
</mask>
<g mask="url(#mask2_15_2)">
<path d="M404.311 133.995C404.311 133.995 362.162 114.297 319.396 92.3679C286.739 75.6601 247.106 58.7149 205.811 58.7149C182.867 58.7055 160.436 65.4999 141.353 78.239C122.271 90.9781 107.395 109.09 98.6059 130.283C89.8171 151.477 87.5102 174.801 91.9771 197.306C96.444 219.81 107.484 240.485 123.701 256.716C139.918 272.946 160.584 284.003 183.085 288.488C205.586 292.973 228.912 290.686 250.113 281.914C271.314 273.143 289.437 258.281 302.192 239.209C314.947 220.138 321.759 197.712 321.769 174.768C321.769 172.395 321.769 170.022 321.769 167.791L389.692 183.739C396.954 185.305 405.688 175.623 409.105 163.139C412.523 150.656 411.004 136.796 404.359 134.043" fill="#81D4FA"/>
</g>
</g>
<path d="M104.424 181.603C104.424 232.771 154.073 276.819 205.811 276.819C257.548 276.819 307.15 231.157 307.15 181.603H104.424Z" fill="#AB47BC"/>
<path d="M273.876 250.001L267.848 234.432L137.65 240.176L136.084 248.53C143.664 255.622 152.274 261.527 161.62 266.044C158.677 261.677 155.687 254.89 165.75 256.551C179.097 258.465 192.564 259.417 206.048 259.399C220.787 259.29 235.503 258.196 250.096 256.124C259.162 256.124 252.517 264.858 252.517 264.858C260.297 260.915 267.526 255.968 274.019 250.143" fill="#992FAF"/>
<path d="M205.858 167.458C261.82 167.458 307.197 173.486 307.197 180.891C307.197 188.296 261.82 194.371 205.858 194.371C149.896 194.371 104.424 188.343 104.424 180.891C104.424 173.439 149.801 167.458 205.811 167.458" fill="#EA80FC"/>
<path d="M127.445 245.112L85.438 378.395C84.8085 379.824 84.7725 381.444 85.3377 382.9C85.903 384.355 87.0232 385.526 88.452 386.156C89.8808 386.785 91.5012 386.821 92.9566 386.256C94.412 385.691 95.5832 384.571 96.2127 383.142L151.083 245.112H127.445Z" fill="#84B0C1"/>
<path d="M283.512 245.112H259.779L314.697 383.142C315.404 384.437 316.573 385.419 317.971 385.893C319.368 386.367 320.893 386.299 322.243 385.702C323.593 385.105 324.669 384.022 325.258 382.669C325.847 381.315 325.906 379.79 325.424 378.395L283.512 245.112Z" fill="#84B0C1"/>
<path d="M205.051 253.229C130.91 253.229 103.617 236.663 102.383 235.951C99.6324 234.607 97.2566 232.604 95.4678 230.119C93.6789 227.635 92.5325 224.746 92.1306 221.711C91.919 219.877 92.2971 218.024 93.2104 216.419C94.1236 214.814 95.5244 213.543 97.2094 212.788C108.411 215.446 138.03 231.774 205.051 231.774C272.832 231.774 315.266 212.788 315.551 212.408C316.984 213.648 318.127 215.188 318.898 216.919C319.669 218.65 320.05 220.529 320.013 222.423C319.91 225.647 318.879 228.773 317.044 231.425C315.208 234.077 312.646 236.143 309.665 237.375C308.289 237.992 279.05 253.324 205.241 253.324" fill="#84B0C1"/>
<path d="M283.702 245.682C292.648 243.904 301.361 241.101 309.665 237.328C313.607 235.604 316.781 232.497 318.589 228.594C319.634 226.695 320.127 224.541 320.013 222.376C283.488 237.081 244.422 244.436 205.051 244.02C138.03 244.02 103.38 225.699 92.2255 223.041C92.3425 224.743 92.9164 226.383 93.8868 227.787C95.9331 231.235 98.8673 234.071 102.383 235.999C110.285 240.17 118.716 243.251 127.445 245.16L123.838 256.551C124.937 254.546 126.693 252.98 128.81 252.116C130.928 251.252 133.278 251.142 135.467 251.805C141.162 252.896 144.96 256.931 144.533 260.823L149.279 249.242C167.684 251.897 186.266 253.135 204.861 252.944C223.764 253.089 242.654 251.915 261.393 249.431L266.139 261.06C265.38 257.121 269.462 253.039 275.253 251.947C281.044 250.855 286.17 253.134 287.024 256.978L283.702 245.682Z" fill="#2F7889"/>
<g opacity="0.6">
<mask id="mask3_15_2" style="mask-type:luminance" maskUnits="userSpaceOnUse" x="280" y="88" width="121" height="67">
<path d="M400.657 88.1435H280.901V154.215H400.657V88.1435Z" fill="white"/>
</mask>
<g mask="url(#mask3_15_2)">
<path d="M293.812 90.6117C309.096 96.4974 389.36 134.565 396.005 138.077C404.217 142.302 401.084 157.063 390.499 153.836C375.12 149.089 314.554 113.443 302.355 106.608C271.883 89.3776 278.623 84.7734 293.812 90.7066" fill="white"/>
</g>
</g>
<g opacity="0.6">
<mask id="mask4_15_2" style="mask-type:luminance" maskUnits="userSpaceOnUse" x="124" y="98" width="61" height="106">
<path d="M184.783 98.0163H124.929V203.77H184.783V98.0163Z" fill="white"/>
</mask>
<g mask="url(#mask4_15_2)">
<path d="M177.663 132.998C170.961 141.548 165.171 150.775 160.386 160.528C155.972 170.828 153.409 181.793 149.706 192.33C148.045 197.077 145.577 202.298 140.688 203.532C138.624 203.884 136.503 203.622 134.587 202.778C132.672 201.934 131.046 200.546 129.913 198.786C127.694 195.26 126.343 191.258 125.974 187.109C123.319 166.958 125.885 146.462 133.426 127.587C138.599 115.056 148.235 102.81 162.38 98.7283C180.701 93.4596 191.903 113.965 179.562 129.771C178.803 130.768 178.328 131.859 177.663 132.856" fill="white"/>
</g>
</g>
<path d="M126.258 222.234C115.531 219.101 109.171 216.728 107.557 220.003C105.943 223.278 111.544 228.784 144.438 235.002C177.331 241.22 198.406 239.369 207.329 235.524C216.253 231.679 193.09 231.679 184.878 231.157C165.09 230.146 145.452 227.156 126.258 222.234Z" fill="#B9E4EA"/>
</g>
<path d="M1121.09 271.74V155.051H1142.1V271.74H1121.09Z" fill="white"/>
<path d="M1060.5 274.074C1038.49 274.074 1016.65 258.571 1016.65 229.232C1016.65 199.726 1037.99 184.223 1059.66 184.223C1081 184.223 1102.67 199.393 1102.67 229.065V235.567H1037.49C1039.83 249.069 1049.49 255.237 1060.5 255.237C1068 255.237 1073.33 252.903 1076.67 248.569H1101C1093.67 265.739 1076.67 274.074 1060.5 274.074ZM1037.82 220.564H1080.5C1078.5 206.561 1068.66 201.393 1059.66 201.393C1049.49 201.393 1040.49 207.728 1037.82 220.564Z" fill="white"/>
<path d="M962.551 274.074C950.549 274.074 940.714 269.74 934.212 261.572V271.74H913.208V155.051H934.212V196.892C940.714 188.557 950.549 184.223 962.551 184.223C983.055 184.223 1002.73 199.726 1002.73 229.232C1002.73 258.571 983.055 274.074 962.551 274.074ZM934.212 229.232C934.212 245.235 943.881 254.404 957.55 254.404C971.22 254.404 980.888 245.235 980.888 229.232C980.888 213.062 971.22 203.894 957.55 203.894C943.881 203.894 934.212 213.062 934.212 229.232Z" fill="white"/>
<path d="M847.828 274.074C832.159 274.074 820.99 265.072 820.99 248.736C820.99 234.566 829.325 226.731 846.161 222.231L870.833 215.729V212.729C870.833 207.561 866.332 203.894 858.997 203.894C852.496 203.894 846.328 206.394 844.494 214.229H821.823C824.824 194.892 839.16 184.223 858.997 184.223C879.668 184.223 891.837 195.559 891.837 212.729V271.74H870.833V264.072C865.332 270.907 856.663 274.074 847.828 274.074ZM841.994 247.069C841.994 253.237 846.328 256.237 852.663 256.237C862.498 256.237 870.833 249.903 870.833 240.567V232.733L850.496 238.067C844.661 239.734 841.994 242.735 841.994 247.069Z" fill="white"/>
<path d="M780.533 271.74V155.051H801.537V271.74H780.533Z" fill="white"/>
<path d="M736.253 271.74V186.557H757.257V271.74H736.253ZM734.253 166.053C734.253 158.718 739.421 153.551 746.755 153.551C753.923 153.551 759.258 158.718 759.258 166.053C759.258 173.388 753.923 178.555 746.755 178.555C739.421 178.555 734.253 173.388 734.253 166.053Z" fill="white"/>
<path d="M703.837 271.74C688.167 271.74 676.332 261.405 676.332 245.902V205.394H662.496V186.557H676.332V165.053H697.336V186.557H717.173V205.394H697.336V245.902C697.336 250.403 699.336 252.903 703.837 252.903H716.006V271.74H703.837Z" fill="white"/>
<path d="M619.448 274.074C601.945 274.074 587.442 264.405 585.775 246.569H607.279C608.779 253.07 613.614 255.737 619.448 255.737C625.616 255.737 629.784 252.403 629.784 247.402C629.784 230.899 586.275 246.235 586.275 211.562C586.275 195.225 600.611 184.223 617.781 184.223C634.951 184.223 647.787 193.892 649.621 209.728H627.95C626.45 205.227 623.116 202.727 617.781 202.727C612.28 202.727 608.113 205.727 608.113 210.562C608.113 226.731 651.621 211.395 651.621 246.402C651.621 262.405 637.452 274.074 619.448 274.074Z" fill="white"/>
<path d="M545.298 271.74V186.557H566.302V271.74H545.298ZM543.298 166.053C543.298 158.718 548.466 153.551 555.8 153.551C562.968 153.551 568.303 158.718 568.303 166.053C568.303 173.388 562.968 178.555 555.8 178.555C548.466 178.555 543.298 173.388 543.298 166.053Z" fill="white"/>
<path d="M472.564 274.074C452.06 274.074 432.39 258.571 432.39 229.232C432.39 199.726 452.06 184.223 472.564 184.223C484.567 184.223 494.402 188.557 500.903 196.892V155.051H521.907V271.74H500.903V261.572C494.402 269.74 484.567 274.074 472.564 274.074ZM454.227 229.232C454.227 245.235 464.063 254.404 477.565 254.404C491.235 254.404 500.903 245.235 500.903 229.232C500.903 213.062 491.235 203.894 477.565 203.894C464.063 203.894 454.227 213.062 454.227 229.232Z" fill="white"/>
</g>
</svg>
